<svg width="21" height="21" viewBox="0 0 21 21" fill="none" xmlns="http://www.w3.org/2000/svg">
<path d="M20.2393 4.00205V13.8021C20.2393 15.2021 19.6393 15.7021 18.2393 15.7021H17.2393C15.8393 15.7021 15.2393 15.2021 15.2393 13.8021V4.00205C15.2393 2.60205 15.8393 2.10205 17.2393 2.10205H18.2393C19.6393 2.10205 20.2393 2.60205 20.2393 4.00205Z" stroke="black" stroke-width="1.5" stroke-linecap="round" stroke-linejoin="round"/>
<path d="M15.1389 4.00195L12.0389 1.60195C11.6389 1.20195 10.7389 1.00195 10.1389 1.00195H6.33887C5.13887 1.00195 3.83887 1.90195 3.53887 3.10195L1.13887 10.402C0.638873 11.802 1.53887 13.002 3.03887 13.002H7.03887C7.63887 13.002 8.13887 13.502 8.03887 14.202L7.53887 17.402C7.33887 18.302 7.93887 19.302 8.83887 19.602C9.63887 19.902 10.6389 19.502 11.0389 18.902L15.1389 12.802" stroke="black" stroke-width="1.5" stroke-miterlimit="10"/>
</svg>
