<svg width="21" height="21" viewBox="0 0 21 21" fill="none" xmlns="http://www.w3.org/2000/svg">
<path d="M1 16.702V6.90195C1 5.50195 1.6 5.00195 3 5.00195H4C5.4 5.00195 6 5.50195 6 6.90195V16.702C6 18.102 5.4 18.602 4 18.602H3C1.6 18.602 1 18.102 1 16.702Z" stroke="black" stroke-width="1.5" stroke-linecap="round" stroke-linejoin="round"/>
<path d="M6.10059 16.702L9.20059 19.102C9.60059 19.502 10.5006 19.702 11.1006 19.702H14.9006C16.1006 19.702 17.4006 18.802 17.7006 17.602L20.1006 10.302C20.6006 8.90202 19.7006 7.70202 18.2006 7.70202H14.2006C13.6006 7.70202 13.1006 7.20202 13.2006 6.50202L13.7006 3.30202C13.9006 2.40202 13.3006 1.40202 12.4006 1.10202C11.6006 0.802019 10.6006 1.20202 10.2006 1.80202L6.10059 7.90202" stroke="black" stroke-width="1.5" stroke-miterlimit="10"/>
</svg>
